<svg xmlns="http://www.w3.org/2000/svg" xmlns:xlink="http://www.w3.org/1999/xlink" width="500" zoomAndPan="magnify" viewBox="0 0 375 374.999991" height="500" preserveAspectRatio="xMidYMid meet" version="1.0"><defs><g/><clipPath id="27cf0f985c"><path d="M 43.082031 162 L 217 162 L 217 197 L 43.082031 197 Z M 43.082031 162 " clip-rule="nonzero"/></clipPath><clipPath id="469b6a717d"><path d="M 158 151 L 331.832031 151 L 331.832031 186 L 158 186 Z M 158 151 " clip-rule="nonzero"/></clipPath><clipPath id="34a5cea5df"><path d="M 70 88.792969 L 288 88.792969 L 288 166 L 70 166 Z M 70 88.792969 " clip-rule="nonzero"/></clipPath><clipPath id="1e2c016cbc"><path d="M 0.398438 3 L 49 3 L 49 64 L 0.398438 64 Z M 0.398438 3 " clip-rule="nonzero"/></clipPath><clipPath id="c52551911e"><path d="M 0.398438 3 L 49 3 L 49 64 L 0.398438 64 Z M 0.398438 3 " clip-rule="nonzero"/></clipPath><clipPath id="b7118df0cc"><rect x="0" width="359" y="0" height="83"/></clipPath></defs><path fill="#ffffff" d="M 92.867188 0 L 282.132812 0 C 283.652344 0 285.171875 0.0390625 286.691406 0.113281 C 288.207031 0.1875 289.722656 0.296875 291.234375 0.445312 C 292.75 0.597656 294.257812 0.78125 295.761719 1.003906 C 297.261719 1.226562 298.761719 1.488281 300.25 1.785156 C 301.742188 2.082031 303.222656 2.414062 304.699219 2.78125 C 306.171875 3.152344 307.636719 3.558594 309.089844 4 C 310.546875 4.441406 311.988281 4.917969 313.417969 5.429688 C 314.851562 5.941406 316.269531 6.488281 317.671875 7.070312 C 319.074219 7.652344 320.464844 8.265625 321.839844 8.917969 C 323.214844 9.566406 324.570312 10.25 325.910156 10.964844 C 327.25 11.683594 328.574219 12.429688 329.875 13.210938 C 331.179688 13.992188 332.464844 14.804688 333.726562 15.652344 C 334.992188 16.496094 336.234375 17.371094 337.453125 18.277344 C 338.675781 19.179688 339.871094 20.117188 341.046875 21.078125 C 342.222656 22.042969 343.371094 23.035156 344.5 24.058594 C 345.625 25.078125 346.726562 26.125 347.800781 27.199219 C 348.875 28.273438 349.921875 29.375 350.941406 30.5 C 351.964844 31.628906 352.957031 32.777344 353.921875 33.953125 C 354.882812 35.128906 355.820312 36.324219 356.722656 37.546875 C 357.628906 38.765625 358.503906 40.007812 359.347656 41.273438 C 360.195312 42.535156 361.007812 43.820312 361.789062 45.125 C 362.570312 46.425781 363.316406 47.75 364.035156 49.089844 C 364.75 50.429688 365.433594 51.785156 366.082031 53.160156 C 366.734375 54.535156 367.347656 55.921875 367.929688 57.328125 C 368.511719 58.730469 369.058594 60.148438 369.570312 61.582031 C 370.082031 63.011719 370.558594 64.453125 371 65.910156 C 371.441406 67.363281 371.847656 68.828125 372.21875 70.300781 C 372.585938 71.777344 372.917969 73.257812 373.214844 74.75 C 373.511719 76.238281 373.773438 77.738281 373.996094 79.238281 C 374.21875 80.742188 374.402344 82.25 374.554688 83.765625 C 374.703125 85.277344 374.8125 86.792969 374.886719 88.308594 C 374.960938 89.828125 375 91.347656 375 92.867188 L 375 282.132812 C 375 283.652344 374.960938 285.171875 374.886719 286.691406 C 374.8125 288.207031 374.703125 289.722656 374.554688 291.234375 C 374.402344 292.75 374.21875 294.257812 373.996094 295.761719 C 373.773438 297.261719 373.511719 298.761719 373.214844 300.25 C 372.917969 301.742188 372.585938 303.222656 372.21875 304.699219 C 371.847656 306.171875 371.441406 307.636719 371 309.089844 C 370.558594 310.546875 370.082031 311.988281 369.570312 313.417969 C 369.058594 314.851562 368.511719 316.269531 367.929688 317.671875 C 367.347656 319.074219 366.734375 320.464844 366.082031 321.839844 C 365.433594 323.214844 364.75 324.570312 364.035156 325.910156 C 363.316406 327.25 362.570312 328.574219 361.789062 329.875 C 361.007812 331.179688 360.195312 332.464844 359.347656 333.726562 C 358.503906 334.992188 357.628906 336.234375 356.722656 337.453125 C 355.820312 338.675781 354.882812 339.871094 353.921875 341.046875 C 352.957031 342.222656 351.964844 343.371094 350.941406 344.5 C 349.921875 345.625 348.875 346.726562 347.800781 347.800781 C 346.726562 348.875 345.625 349.921875 344.5 350.941406 C 343.371094 351.964844 342.222656 352.957031 341.046875 353.921875 C 339.871094 354.882812 338.675781 355.820312 337.453125 356.722656 C 336.234375 357.628906 334.992188 358.503906 333.726562 359.347656 C 332.464844 360.195312 331.179688 361.007812 329.875 361.789062 C 328.574219 362.570312 327.25 363.316406 325.910156 364.035156 C 324.570312 364.75 323.214844 365.433594 321.839844 366.082031 C 320.464844 366.734375 319.074219 367.347656 317.671875 367.929688 C 316.269531 368.511719 314.851562 369.058594 313.417969 369.570312 C 311.988281 370.082031 310.546875 370.558594 309.089844 371 C 307.636719 371.441406 306.171875 371.847656 304.699219 372.21875 C 303.222656 372.585938 301.742188 372.917969 300.25 373.214844 C 298.761719 373.511719 297.261719 373.773438 295.761719 373.996094 C 294.257812 374.21875 292.75 374.402344 291.234375 374.554688 C 289.722656 374.703125 288.207031 374.8125 286.691406 374.886719 C 285.171875 374.960938 283.652344 375 282.132812 375 L 92.867188 375 C 91.347656 375 89.828125 374.960938 88.308594 374.886719 C 86.792969 374.8125 85.277344 374.703125 83.765625 374.554688 C 82.25 374.402344 80.742188 374.21875 79.238281 373.996094 C 77.738281 373.773438 76.238281 373.511719 74.75 373.214844 C 73.257812 372.917969 71.777344 372.585938 70.300781 372.21875 C 68.828125 371.847656 67.363281 371.441406 65.910156 371 C 64.453125 370.558594 63.011719 370.082031 61.582031 369.570312 C 60.148438 369.058594 58.730469 368.511719 57.328125 367.929688 C 55.921875 367.347656 54.535156 366.734375 53.160156 366.082031 C 51.785156 365.433594 50.429688 364.75 49.089844 364.035156 C 47.75 363.316406 46.425781 362.570312 45.125 361.789062 C 43.820312 361.007812 42.535156 360.195312 41.273438 359.347656 C 40.007812 358.503906 38.765625 357.628906 37.546875 356.722656 C 36.324219 355.820312 35.128906 354.882812 33.953125 353.921875 C 32.777344 352.957031 31.628906 351.964844 30.5 350.941406 C 29.375 349.921875 28.273438 348.875 27.199219 347.800781 C 26.125 346.726562 25.078125 345.625 24.058594 344.5 C 23.035156 343.371094 22.042969 342.222656 21.078125 341.046875 C 20.117188 339.871094 19.179688 338.675781 18.277344 337.453125 C 17.371094 336.234375 16.496094 334.992188 15.652344 333.726562 C 14.804688 332.464844 13.992188 331.179688 13.210938 329.875 C 12.429688 328.574219 11.683594 327.25 10.964844 325.910156 C 10.25 324.570312 9.566406 323.214844 8.917969 321.839844 C 8.265625 320.464844 7.652344 319.074219 7.070312 317.671875 C 6.488281 316.269531 5.941406 314.851562 5.429688 313.417969 C 4.917969 311.988281 4.441406 310.546875 4 309.089844 C 3.558594 307.636719 3.152344 306.171875 2.78125 304.699219 C 2.414062 303.222656 2.082031 301.742188 1.785156 300.25 C 1.488281 298.761719 1.226562 297.261719 1.003906 295.761719 C 0.78125 294.257812 0.597656 292.75 0.445312 291.234375 C 0.296875 289.722656 0.1875 288.207031 0.113281 286.691406 C 0.0390625 285.171875 0 283.652344 0 282.132812 L 0 92.867188 C 0 91.347656 0.0390625 89.828125 0.113281 88.308594 C 0.1875 86.792969 0.296875 85.277344 0.445312 83.765625 C 0.597656 82.25 0.78125 80.742188 1.003906 79.238281 C 1.226562 77.738281 1.488281 76.238281 1.785156 74.75 C 2.082031 73.257812 2.414062 71.777344 2.78125 70.300781 C 3.152344 68.828125 3.558594 67.363281 4 65.910156 C 4.441406 64.453125 4.917969 63.011719 5.429688 61.582031 C 5.941406 60.148438 6.488281 58.730469 7.070312 57.328125 C 7.652344 55.921875 8.265625 54.535156 8.917969 53.160156 C 9.566406 51.785156 10.25 50.429688 10.964844 49.089844 C 11.683594 47.75 12.429688 46.425781 13.210938 45.125 C 13.992188 43.820312 14.804688 42.535156 15.652344 41.273438 C 16.496094 40.007812 17.371094 38.765625 18.277344 37.546875 C 19.179688 36.324219 20.117188 35.128906 21.078125 33.953125 C 22.042969 32.777344 23.035156 31.628906 24.058594 30.5 C 25.078125 29.375 26.125 28.273438 27.199219 27.199219 C 28.273438 26.125 29.375 25.078125 30.5 24.058594 C 31.628906 23.035156 32.777344 22.042969 33.953125 21.078125 C 35.128906 20.117188 36.324219 19.179688 37.546875 18.277344 C 38.765625 17.371094 40.007812 16.496094 41.273438 15.652344 C 42.535156 14.804688 43.820312 13.992188 45.125 13.210938 C 46.425781 12.429688 47.75 11.683594 49.089844 10.964844 C 50.429688 10.25 51.785156 9.566406 53.160156 8.917969 C 54.535156 8.265625 55.921875 7.652344 57.328125 7.070312 C 58.730469 6.488281 60.148438 5.941406 61.582031 5.429688 C 63.011719 4.917969 64.453125 4.441406 65.910156 4 C 67.363281 3.558594 68.828125 3.152344 70.300781 2.78125 C 71.777344 2.414062 73.257812 2.082031 74.75 1.785156 C 76.238281 1.488281 77.738281 1.226562 79.238281 1.003906 C 80.742188 0.78125 82.25 0.597656 83.765625 0.445312 C 85.277344 0.296875 86.792969 0.1875 88.308594 0.113281 C 89.828125 0.0390625 91.347656 0 92.867188 0 Z M 92.867188 0 " fill-opacity="1" fill-rule="nonzero"/><g clip-path="url(#27cf0f985c)"><path fill="#445d7b" d="M 43.082031 172.929688 C 43.082031 172.929688 77.820312 149.160156 132.785156 172.929688 C 180.433594 193.542969 216.558594 186.339844 216.558594 186.339844 C 216.558594 186.339844 190.792969 207.0625 139.710938 188.277344 C 88.625 169.496094 75.769531 164.011719 43.082031 172.929688 Z M 43.082031 172.929688 " fill-opacity="1" fill-rule="nonzero"/></g><g clip-path="url(#469b6a717d)"><path fill="#445d7b" d="M 158.4375 174.980469 C 158.4375 174.980469 193.175781 198.75 248.140625 174.980469 C 295.734375 154.371094 331.914062 161.570312 331.914062 161.570312 C 331.914062 161.570312 306.148438 140.851562 255.066406 159.632812 C 203.980469 178.414062 191.125 183.902344 158.4375 174.980469 Z M 158.4375 174.980469 " fill-opacity="1" fill-rule="nonzero"/></g><g clip-path="url(#34a5cea5df)"><path fill="#445d7b" d="M 175.558594 140.960938 L 175.558594 165.671875 L 184.257812 165.671875 L 184.257812 139.851562 C 184.257812 136.363281 187.082031 133.59375 190.515625 133.59375 L 247.75 133.59375 C 251.242188 133.59375 254.011719 136.417969 254.011719 139.851562 L 254.011719 156.972656 C 254.34375 156.863281 254.675781 156.75 255.011719 156.585938 C 265.757812 152.597656 275.398438 150.4375 283.933594 149.4375 L 283.933594 107.441406 C 286.203125 105.5 287.699219 102.621094 287.699219 99.351562 C 287.699219 93.535156 282.988281 88.824219 277.171875 88.824219 C 271.355469 88.824219 266.644531 93.535156 266.644531 99.351562 C 266.644531 102.566406 268.085938 105.5 270.414062 107.441406 L 270.414062 128.882812 C 259.996094 116.691406 244.539062 108.9375 227.25 108.9375 L 129.847656 108.9375 C 113.113281 108.9375 98.042969 116.195312 87.683594 127.71875 L 87.683594 107.441406 C 89.957031 105.5 91.449219 102.621094 91.449219 99.351562 C 91.449219 93.535156 86.742188 88.824219 80.925781 88.824219 C 75.105469 88.824219 70.398438 93.535156 70.398438 99.351562 C 70.398438 102.566406 71.835938 105.5 74.164062 107.441406 L 74.164062 155.257812 C 73.554688 158.636719 73.222656 162.125 73.222656 165.671875 L 105.800781 165.671875 L 105.800781 140.960938 C 105.800781 136.917969 109.070312 133.59375 113.171875 133.59375 L 168.242188 133.59375 C 172.234375 133.59375 175.558594 136.917969 175.558594 140.960938 Z M 175.558594 140.960938 " fill-opacity="1" fill-rule="nonzero"/></g><g transform="matrix(1, 0, 0, 1, 8, 209)"><g clip-path="url(#b7118df0cc)"><g clip-path="url(#1e2c016cbc)"><g fill="#000000" fill-opacity="0.4"><g transform="translate(0.951092, 63.067735)"><g><path d="M 0 -45.328125 C 0.488281 -46.921875 1.421875 -48.5625 2.796875 -50.25 C 4.179688 -51.9375 5.929688 -53.5 8.046875 -54.9375 C 10.171875 -56.382812 12.570312 -57.554688 15.25 -58.453125 C 17.9375 -59.347656 20.828125 -59.796875 23.921875 -59.796875 C 28.878906 -59.796875 33.085938 -59.007812 36.546875 -57.4375 C 40.003906 -55.875 42.640625 -53.757812 44.453125 -51.09375 C 46.265625 -48.4375 47.171875 -45.457031 47.171875 -42.15625 C 47.171875 -39.476562 46.660156 -37.0625 45.640625 -34.90625 C 44.617188 -32.75 43.285156 -30.804688 41.640625 -29.078125 C 39.992188 -27.347656 38.160156 -25.78125 36.140625 -24.375 C 34.128906 -22.96875 32.109375 -21.6875 30.078125 -20.53125 C 28.046875 -19.375 26.15625 -18.296875 24.40625 -17.296875 C 22.65625 -16.296875 21.21875 -15.335938 20.09375 -14.421875 C 18.976562 -13.515625 18.34375 -12.570312 18.1875 -11.59375 L 35.015625 -11.59375 C 36.035156 -11.59375 37.175781 -11.679688 38.4375 -11.859375 C 39.695312 -12.046875 40.96875 -12.382812 42.25 -12.875 C 43.53125 -13.363281 44.660156 -14.078125 45.640625 -15.015625 L 45.640625 0 L 4.265625 0 C 2.554688 -1.707031 1.703125 -4.453125 1.703125 -8.234375 C 1.703125 -10.710938 2.269531 -12.925781 3.40625 -14.875 C 4.550781 -16.832031 6.066406 -18.613281 7.953125 -20.21875 C 9.847656 -21.832031 11.914062 -23.304688 14.15625 -24.640625 C 16.394531 -25.984375 18.628906 -27.273438 20.859375 -28.515625 C 23.097656 -29.765625 25.160156 -31 27.046875 -32.21875 C 28.941406 -33.4375 30.457031 -34.726562 31.59375 -36.09375 C 32.738281 -37.457031 33.3125 -38.953125 33.3125 -40.578125 C 33.3125 -42.929688 32.507812 -44.78125 30.90625 -46.125 C 29.300781 -47.46875 27.253906 -48.140625 24.765625 -48.140625 C 22.367188 -48.140625 20.222656 -47.703125 18.328125 -46.828125 C 16.441406 -45.953125 14.828125 -44.832031 13.484375 -43.46875 C 12.140625 -42.101562 11.082031 -40.660156 10.3125 -39.140625 C 9.539062 -37.617188 9.050781 -36.207031 8.84375 -34.90625 C 8.113281 -36.207031 7.238281 -37.507812 6.21875 -38.8125 C 5.207031 -40.113281 4.160156 -41.332031 3.078125 -42.46875 C 2.003906 -43.601562 0.976562 -44.554688 0 -45.328125 Z M 0 -45.328125 "/></g></g></g></g><g fill="#000000" fill-opacity="0.4"><g transform="translate(49.331893, 63.067735)"><g><path d="M -2.4375 -36.484375 L -2.4375 -36.796875 C -0.9375 -36.878906 0.675781 -37.148438 2.40625 -37.609375 C 4.132812 -38.078125 5.84375 -38.664062 7.53125 -39.375 C 9.21875 -40.09375 10.800781 -40.828125 12.28125 -41.578125 C 13.769531 -42.328125 15.023438 -43.007812 16.046875 -43.625 L 16.046875 -29.59375 L 22.265625 -42.046875 C 23.078125 -42.484375 23.941406 -42.851562 24.859375 -43.15625 C 25.773438 -43.46875 26.800781 -43.625 27.9375 -43.625 C 31.800781 -43.625 34.851562 -42.492188 37.09375 -40.234375 C 39.332031 -37.984375 40.453125 -34.554688 40.453125 -29.953125 L 40.453125 -7.625 C 40.453125 -6.125 40.632812 -4.628906 41 -3.140625 C 41.363281 -1.660156 41.894531 -0.613281 42.59375 0 L 25.8125 0 C 26.5 -0.613281 27.023438 -1.648438 27.390625 -3.109375 C 27.753906 -4.578125 27.9375 -6.0625 27.9375 -7.5625 L 27.9375 -26.90625 C 27.9375 -28.863281 27.425781 -30.367188 26.40625 -31.421875 C 25.394531 -32.484375 24.140625 -33.015625 22.640625 -33.015625 C 20.722656 -33.015625 19.253906 -32.398438 18.234375 -31.171875 C 17.222656 -29.953125 16.492188 -28.632812 16.046875 -27.21875 L 16.046875 -7.625 C 16.046875 -6.125 16.226562 -4.628906 16.59375 -3.140625 C 16.957031 -1.660156 17.488281 -0.613281 18.1875 0 L 1.40625 0 C 2.09375 -0.613281 2.617188 -1.648438 2.984375 -3.109375 C 3.347656 -4.578125 3.53125 -6.0625 3.53125 -7.5625 L 3.53125 -27.765625 C 3.53125 -28.210938 3.488281 -28.898438 3.40625 -29.828125 C 3.332031 -30.765625 3.113281 -31.742188 2.75 -32.765625 C 2.382812 -33.785156 1.789062 -34.660156 0.96875 -35.390625 C 0.15625 -36.117188 -0.976562 -36.484375 -2.4375 -36.484375 Z M -2.4375 -36.484375 "/></g></g></g><g fill="#000000" fill-opacity="0.4"><g transform="translate(93.136967, 63.067735)"><g><path d="M 15.5625 0.921875 C 13.15625 0.921875 11.085938 0.25 9.359375 -1.09375 C 7.628906 -2.4375 6.207031 -4.207031 5.09375 -6.40625 C 3.976562 -8.601562 3.15625 -11.003906 2.625 -13.609375 C 2.09375 -16.210938 1.828125 -18.796875 1.828125 -21.359375 C 1.828125 -24.003906 2.148438 -26.632812 2.796875 -29.25 C 3.453125 -31.875 4.488281 -34.273438 5.90625 -36.453125 C 7.332031 -38.628906 9.195312 -40.367188 11.5 -41.671875 C 13.800781 -42.972656 16.597656 -43.625 19.890625 -43.625 C 21.398438 -43.625 22.722656 -43.410156 23.859375 -42.984375 C 24.992188 -42.554688 26.007812 -42 26.90625 -41.3125 L 26.90625 -46.0625 C 26.90625 -46.507812 26.863281 -47.203125 26.78125 -48.140625 C 26.695312 -49.078125 26.472656 -50.050781 26.109375 -51.0625 C 25.742188 -52.082031 25.15625 -52.957031 24.34375 -53.6875 C 23.53125 -54.425781 22.390625 -54.796875 20.921875 -54.796875 L 20.921875 -55.09375 C 22.429688 -55.175781 24.050781 -55.453125 25.78125 -55.921875 C 27.507812 -56.390625 29.21875 -56.976562 30.90625 -57.6875 C 32.59375 -58.40625 34.175781 -59.140625 35.65625 -59.890625 C 37.144531 -60.640625 38.398438 -61.320312 39.421875 -61.9375 L 39.421875 -7.5 C 39.421875 -6 39.601562 -4.523438 39.96875 -3.078125 C 40.332031 -1.640625 40.859375 -0.613281 41.546875 0 L 26.90625 0 L 26.90625 -13.671875 L 22.15625 -1.46875 C 21.414062 -0.726562 20.484375 -0.144531 19.359375 0.28125 C 18.242188 0.707031 16.976562 0.921875 15.5625 0.921875 Z M 14.21875 -20.25 C 14.21875 -13.863281 16.128906 -10.671875 19.953125 -10.671875 C 21.703125 -10.671875 23.125 -11.171875 24.21875 -12.171875 C 25.320312 -13.171875 26.21875 -14.359375 26.90625 -15.734375 L 26.90625 -32.40625 C 25.925781 -32.6875 24.847656 -32.828125 23.671875 -32.828125 C 21.597656 -32.828125 19.859375 -32.21875 18.453125 -31 C 17.054688 -29.78125 16 -28.210938 15.28125 -26.296875 C 14.570312 -24.390625 14.21875 -22.375 14.21875 -20.25 Z M 14.21875 -20.25 "/></g></g></g><g fill="#000000" fill-opacity="0.4"><g transform="translate(135.904866, 63.067735)"><g/></g></g><g fill="#000000" fill-opacity="0.4"><g transform="translate(154.207811, 63.067735)"><g><path d="M 19.21875 0 L 1.21875 0 C 1.90625 -0.613281 2.429688 -1.648438 2.796875 -3.109375 C 3.171875 -4.578125 3.359375 -6.0625 3.359375 -7.5625 L 3.359375 -51.3125 C 3.359375 -52.851562 3.171875 -54.347656 2.796875 -55.796875 C 2.429688 -57.242188 1.90625 -58.269531 1.21875 -58.875 L 19.21875 -58.875 C 18.53125 -58.269531 18 -57.234375 17.625 -55.765625 C 17.257812 -54.304688 17.078125 -52.800781 17.078125 -51.25 L 17.078125 -35.453125 L 33.078125 -35.453125 L 33.078125 -51.3125 C 33.078125 -52.851562 32.890625 -54.347656 32.515625 -55.796875 C 32.148438 -57.242188 31.625 -58.269531 30.9375 -58.875 L 48.9375 -58.875 C 48.238281 -58.269531 47.707031 -57.234375 47.34375 -55.765625 C 46.976562 -54.304688 46.796875 -52.800781 46.796875 -51.25 L 46.796875 -7.625 C 46.796875 -6.125 46.976562 -4.628906 47.34375 -3.140625 C 47.707031 -1.660156 48.238281 -0.613281 48.9375 0 L 30.9375 0 C 31.625 -0.613281 32.148438 -1.648438 32.515625 -3.109375 C 32.890625 -4.578125 33.078125 -6.0625 33.078125 -7.5625 L 33.078125 -24.46875 L 17.078125 -24.46875 L 17.078125 -7.625 C 17.078125 -6.125 17.257812 -4.628906 17.625 -3.140625 C 18 -1.660156 18.53125 -0.613281 19.21875 0 Z M 19.21875 0 "/></g></g></g><g fill="#000000" fill-opacity="0.4"><g transform="translate(204.357906, 63.067735)"><g><path d="M 22.515625 0.921875 C 18.410156 0.921875 14.800781 -0.00390625 11.6875 -1.859375 C 8.570312 -3.710938 6.148438 -6.316406 4.421875 -9.671875 C 2.691406 -13.023438 1.828125 -16.921875 1.828125 -21.359375 C 1.828125 -25.828125 2.691406 -29.726562 4.421875 -33.0625 C 6.148438 -36.40625 8.570312 -39 11.6875 -40.84375 C 14.800781 -42.695312 18.410156 -43.625 22.515625 -43.625 C 26.660156 -43.625 30.289062 -42.695312 33.40625 -40.84375 C 36.519531 -39 38.941406 -36.40625 40.671875 -33.0625 C 42.398438 -29.726562 43.265625 -25.828125 43.265625 -21.359375 C 43.265625 -16.921875 42.398438 -13.023438 40.671875 -9.671875 C 38.941406 -6.316406 36.519531 -3.710938 33.40625 -1.859375 C 30.289062 -0.00390625 26.660156 0.921875 22.515625 0.921875 Z M 14.640625 -21.296875 C 14.640625 -18.078125 15.34375 -15.488281 16.75 -13.53125 C 18.15625 -11.582031 20.078125 -10.609375 22.515625 -10.609375 C 24.953125 -10.609375 26.882812 -11.582031 28.3125 -13.53125 C 29.738281 -15.488281 30.453125 -18.078125 30.453125 -21.296875 C 30.453125 -24.546875 29.738281 -27.144531 28.3125 -29.09375 C 26.882812 -31.050781 24.953125 -32.03125 22.515625 -32.03125 C 20.078125 -32.03125 18.15625 -31.050781 16.75 -29.09375 C 15.34375 -27.144531 14.640625 -24.546875 14.640625 -21.296875 Z M 14.640625 -21.296875 "/></g></g></g><g fill="#000000" fill-opacity="0.4"><g transform="translate(249.444171, 63.067735)"><g><path d="M -2.4375 -36.796875 C -0.9375 -36.878906 0.675781 -37.148438 2.40625 -37.609375 C 4.132812 -38.078125 5.84375 -38.664062 7.53125 -39.375 C 9.21875 -40.09375 10.800781 -40.828125 12.28125 -41.578125 C 13.769531 -42.328125 15.023438 -43.007812 16.046875 -43.625 L 16.046875 -29.59375 L 22.265625 -42.046875 C 23.078125 -42.484375 23.941406 -42.851562 24.859375 -43.15625 C 25.773438 -43.46875 26.800781 -43.625 27.9375 -43.625 C 31.800781 -43.625 34.851562 -42.492188 37.09375 -40.234375 C 39.332031 -37.984375 40.453125 -34.554688 40.453125 -29.953125 L 40.453125 -29.46875 L 46.734375 -42.046875 C 47.546875 -42.484375 48.410156 -42.851562 49.328125 -43.15625 C 50.242188 -43.46875 51.269531 -43.625 52.40625 -43.625 C 56.269531 -43.625 59.320312 -42.492188 61.5625 -40.234375 C 63.800781 -37.984375 64.921875 -34.554688 64.921875 -29.953125 L 64.921875 -7.625 C 64.921875 -6.125 65.101562 -4.628906 65.46875 -3.140625 C 65.832031 -1.660156 66.363281 -0.613281 67.0625 0 L 50.28125 0 C 50.96875 -0.613281 51.492188 -1.648438 51.859375 -3.109375 C 52.222656 -4.578125 52.40625 -6.0625 52.40625 -7.5625 L 52.40625 -26.90625 C 52.40625 -28.863281 51.894531 -30.367188 50.875 -31.421875 C 49.863281 -32.484375 48.609375 -33.015625 47.109375 -33.015625 C 45.804688 -33.015625 44.707031 -32.71875 43.8125 -32.125 C 42.914062 -31.53125 42.203125 -30.773438 41.671875 -29.859375 C 41.140625 -28.953125 40.734375 -28.007812 40.453125 -27.03125 L 40.453125 -7.625 C 40.453125 -6.125 40.632812 -4.628906 41 -3.140625 C 41.363281 -1.660156 41.894531 -0.613281 42.59375 0 L 25.8125 0 C 26.5 -0.613281 27.023438 -1.648438 27.390625 -3.109375 C 27.753906 -4.578125 27.9375 -6.0625 27.9375 -7.5625 L 27.9375 -26.90625 C 27.9375 -28.863281 27.425781 -30.367188 26.40625 -31.421875 C 25.394531 -32.484375 24.140625 -33.015625 22.640625 -33.015625 C 20.722656 -33.015625 19.253906 -32.398438 18.234375 -31.171875 C 17.222656 -29.953125 16.492188 -28.632812 16.046875 -27.21875 L 16.046875 -7.625 C 16.046875 -6.125 16.226562 -4.628906 16.59375 -3.140625 C 16.957031 -1.660156 17.488281 -0.613281 18.1875 0 L 1.40625 0 C 2.09375 -0.613281 2.617188 -1.648438 2.984375 -3.109375 C 3.347656 -4.578125 3.53125 -6.0625 3.53125 -7.5625 L 3.53125 -27.765625 C 3.53125 -28.210938 3.488281 -28.898438 3.40625 -29.828125 C 3.332031 -30.765625 3.113281 -31.742188 2.75 -32.765625 C 2.382812 -33.785156 1.789062 -34.660156 0.96875 -35.390625 C 0.15625 -36.117188 -0.976562 -36.484375 -2.4375 -36.484375 Z M -2.4375 -36.796875 "/></g></g></g><g fill="#000000" fill-opacity="0.4"><g transform="translate(317.714198, 63.067735)"><g><path d="M 22.9375 0.921875 C 19.363281 0.921875 16.242188 0.332031 13.578125 -0.84375 C 10.910156 -2.03125 8.710938 -3.648438 6.984375 -5.703125 C 5.253906 -7.753906 3.960938 -10.125 3.109375 -12.8125 C 2.253906 -15.5 1.828125 -18.347656 1.828125 -21.359375 C 1.828125 -24.367188 2.273438 -27.210938 3.171875 -29.890625 C 4.066406 -32.578125 5.421875 -34.945312 7.234375 -37 C 9.046875 -39.0625 11.300781 -40.679688 14 -41.859375 C 16.707031 -43.035156 19.890625 -43.625 23.546875 -43.625 C 26.640625 -43.625 29.34375 -42.984375 31.65625 -41.703125 C 33.976562 -40.421875 35.78125 -38.769531 37.0625 -36.75 C 38.34375 -34.738281 38.984375 -32.65625 38.984375 -30.5 C 38.984375 -28.46875 38.441406 -26.492188 37.359375 -24.578125 C 36.285156 -22.671875 34.519531 -21.117188 32.0625 -19.921875 C 29.601562 -18.722656 26.28125 -18.125 22.09375 -18.125 L 14.953125 -18.125 C 15.441406 -15.96875 16.414062 -14.28125 17.875 -13.0625 C 19.34375 -11.84375 21.210938 -11.234375 23.484375 -11.234375 C 24.992188 -11.234375 26.285156 -11.535156 27.359375 -12.140625 C 28.441406 -12.753906 29.335938 -13.457031 30.046875 -14.25 C 30.765625 -15.039062 31.265625 -15.703125 31.546875 -16.234375 C 32.566406 -14.640625 33.765625 -13.097656 35.140625 -11.609375 C 36.523438 -10.128906 37.847656 -8.820312 39.109375 -7.6875 C 37.316406 -4.84375 34.96875 -2.695312 32.0625 -1.25 C 29.15625 0.195312 26.113281 0.921875 22.9375 0.921875 Z M 14.828125 -18.796875 C 16.773438 -19.160156 18.664062 -19.800781 20.5 -20.71875 C 22.332031 -21.632812 23.847656 -22.78125 25.046875 -24.15625 C 26.242188 -25.539062 26.84375 -27.109375 26.84375 -28.859375 C 26.84375 -29.671875 26.554688 -30.460938 25.984375 -31.234375 C 25.421875 -32.015625 24.488281 -32.40625 23.1875 -32.40625 C 22.007812 -32.40625 20.757812 -31.984375 19.4375 -31.140625 C 18.113281 -30.304688 16.984375 -29.066406 16.046875 -27.421875 C 15.109375 -25.773438 14.640625 -23.753906 14.640625 -21.359375 C 14.640625 -20.460938 14.703125 -19.609375 14.828125 -18.796875 Z M 14.828125 -18.796875 "/></g></g></g><g clip-path="url(#c52551911e)"><g fill="#445d7b" fill-opacity="1"><g transform="translate(0.951092, 63.067735)"><g><path d="M 0 -45.328125 C 0.488281 -46.921875 1.421875 -48.5625 2.796875 -50.25 C 4.179688 -51.9375 5.929688 -53.5 8.046875 -54.9375 C 10.171875 -56.382812 12.570312 -57.554688 15.25 -58.453125 C 17.9375 -59.347656 20.828125 -59.796875 23.921875 -59.796875 C 28.878906 -59.796875 33.085938 -59.007812 36.546875 -57.4375 C 40.003906 -55.875 42.640625 -53.757812 44.453125 -51.09375 C 46.265625 -48.4375 47.171875 -45.457031 47.171875 -42.15625 C 47.171875 -39.476562 46.660156 -37.0625 45.640625 -34.90625 C 44.617188 -32.75 43.285156 -30.804688 41.640625 -29.078125 C 39.992188 -27.347656 38.160156 -25.78125 36.140625 -24.375 C 34.128906 -22.96875 32.109375 -21.6875 30.078125 -20.53125 C 28.046875 -19.375 26.15625 -18.296875 24.40625 -17.296875 C 22.65625 -16.296875 21.21875 -15.335938 20.09375 -14.421875 C 18.976562 -13.515625 18.34375 -12.570312 18.1875 -11.59375 L 35.015625 -11.59375 C 36.035156 -11.59375 37.175781 -11.679688 38.4375 -11.859375 C 39.695312 -12.046875 40.96875 -12.382812 42.25 -12.875 C 43.53125 -13.363281 44.660156 -14.078125 45.640625 -15.015625 L 45.640625 0 L 4.265625 0 C 2.554688 -1.707031 1.703125 -4.453125 1.703125 -8.234375 C 1.703125 -10.710938 2.269531 -12.925781 3.40625 -14.875 C 4.550781 -16.832031 6.066406 -18.613281 7.953125 -20.21875 C 9.847656 -21.832031 11.914062 -23.304688 14.15625 -24.640625 C 16.394531 -25.984375 18.628906 -27.273438 20.859375 -28.515625 C 23.097656 -29.765625 25.160156 -31 27.046875 -32.21875 C 28.941406 -33.4375 30.457031 -34.726562 31.59375 -36.09375 C 32.738281 -37.457031 33.3125 -38.953125 33.3125 -40.578125 C 33.3125 -42.929688 32.507812 -44.78125 30.90625 -46.125 C 29.300781 -47.46875 27.253906 -48.140625 24.765625 -48.140625 C 22.367188 -48.140625 20.222656 -47.703125 18.328125 -46.828125 C 16.441406 -45.953125 14.828125 -44.832031 13.484375 -43.46875 C 12.140625 -42.101562 11.082031 -40.660156 10.3125 -39.140625 C 9.539062 -37.617188 9.050781 -36.207031 8.84375 -34.90625 C 8.113281 -36.207031 7.238281 -37.507812 6.21875 -38.8125 C 5.207031 -40.113281 4.160156 -41.332031 3.078125 -42.46875 C 2.003906 -43.601562 0.976562 -44.554688 0 -45.328125 Z M 0 -45.328125 "/></g></g></g></g><g fill="#445d7b" fill-opacity="1"><g transform="translate(49.331893, 63.067735)"><g><path d="M -2.4375 -36.484375 L -2.4375 -36.796875 C -0.9375 -36.878906 0.675781 -37.148438 2.40625 -37.609375 C 4.132812 -38.078125 5.84375 -38.664062 7.53125 -39.375 C 9.21875 -40.09375 10.800781 -40.828125 12.28125 -41.578125 C 13.769531 -42.328125 15.023438 -43.007812 16.046875 -43.625 L 16.046875 -29.59375 L 22.265625 -42.046875 C 23.078125 -42.484375 23.941406 -42.851562 24.859375 -43.15625 C 25.773438 -43.46875 26.800781 -43.625 27.9375 -43.625 C 31.800781 -43.625 34.851562 -42.492188 37.09375 -40.234375 C 39.332031 -37.984375 40.453125 -34.554688 40.453125 -29.953125 L 40.453125 -7.625 C 40.453125 -6.125 40.632812 -4.628906 41 -3.140625 C 41.363281 -1.660156 41.894531 -0.613281 42.59375 0 L 25.8125 0 C 26.5 -0.613281 27.023438 -1.648438 27.390625 -3.109375 C 27.753906 -4.578125 27.9375 -6.0625 27.9375 -7.5625 L 27.9375 -26.90625 C 27.9375 -28.863281 27.425781 -30.367188 26.40625 -31.421875 C 25.394531 -32.484375 24.140625 -33.015625 22.640625 -33.015625 C 20.722656 -33.015625 19.253906 -32.398438 18.234375 -31.171875 C 17.222656 -29.953125 16.492188 -28.632812 16.046875 -27.21875 L 16.046875 -7.625 C 16.046875 -6.125 16.226562 -4.628906 16.59375 -3.140625 C 16.957031 -1.660156 17.488281 -0.613281 18.1875 0 L 1.40625 0 C 2.09375 -0.613281 2.617188 -1.648438 2.984375 -3.109375 C 3.347656 -4.578125 3.53125 -6.0625 3.53125 -7.5625 L 3.53125 -27.765625 C 3.53125 -28.210938 3.488281 -28.898438 3.40625 -29.828125 C 3.332031 -30.765625 3.113281 -31.742188 2.75 -32.765625 C 2.382812 -33.785156 1.789062 -34.660156 0.96875 -35.390625 C 0.15625 -36.117188 -0.976562 -36.484375 -2.4375 -36.484375 Z M -2.4375 -36.484375 "/></g></g></g><g fill="#445d7b" fill-opacity="1"><g transform="translate(93.136967, 63.067735)"><g><path d="M 15.5625 0.921875 C 13.15625 0.921875 11.085938 0.25 9.359375 -1.09375 C 7.628906 -2.4375 6.207031 -4.207031 5.09375 -6.40625 C 3.976562 -8.601562 3.15625 -11.003906 2.625 -13.609375 C 2.09375 -16.210938 1.828125 -18.796875 1.828125 -21.359375 C 1.828125 -24.003906 2.148438 -26.632812 2.796875 -29.25 C 3.453125 -31.875 4.488281 -34.273438 5.90625 -36.453125 C 7.332031 -38.628906 9.195312 -40.367188 11.5 -41.671875 C 13.800781 -42.972656 16.597656 -43.625 19.890625 -43.625 C 21.398438 -43.625 22.722656 -43.410156 23.859375 -42.984375 C 24.992188 -42.554688 26.007812 -42 26.90625 -41.3125 L 26.90625 -46.0625 C 26.90625 -46.507812 26.863281 -47.203125 26.78125 -48.140625 C 26.695312 -49.078125 26.472656 -50.050781 26.109375 -51.0625 C 25.742188 -52.082031 25.15625 -52.957031 24.34375 -53.6875 C 23.53125 -54.425781 22.390625 -54.796875 20.921875 -54.796875 L 20.921875 -55.09375 C 22.429688 -55.175781 24.050781 -55.453125 25.78125 -55.921875 C 27.507812 -56.390625 29.21875 -56.976562 30.90625 -57.6875 C 32.59375 -58.40625 34.175781 -59.140625 35.65625 -59.890625 C 37.144531 -60.640625 38.398438 -61.320312 39.421875 -61.9375 L 39.421875 -7.5 C 39.421875 -6 39.601562 -4.523438 39.96875 -3.078125 C 40.332031 -1.640625 40.859375 -0.613281 41.546875 0 L 26.90625 0 L 26.90625 -13.671875 L 22.15625 -1.46875 C 21.414062 -0.726562 20.484375 -0.144531 19.359375 0.28125 C 18.242188 0.707031 16.976562 0.921875 15.5625 0.921875 Z M 14.21875 -20.25 C 14.21875 -13.863281 16.128906 -10.671875 19.953125 -10.671875 C 21.703125 -10.671875 23.125 -11.171875 24.21875 -12.171875 C 25.320312 -13.171875 26.21875 -14.359375 26.90625 -15.734375 L 26.90625 -32.40625 C 25.925781 -32.6875 24.847656 -32.828125 23.671875 -32.828125 C 21.597656 -32.828125 19.859375 -32.21875 18.453125 -31 C 17.054688 -29.78125 16 -28.210938 15.28125 -26.296875 C 14.570312 -24.390625 14.21875 -22.375 14.21875 -20.25 Z M 14.21875 -20.25 "/></g></g></g><g fill="#445d7b" fill-opacity="1"><g transform="translate(135.904866, 63.067735)"><g/></g></g><g fill="#445d7b" fill-opacity="1"><g transform="translate(154.207811, 63.067735)"><g><path d="M 19.21875 0 L 1.21875 0 C 1.90625 -0.613281 2.429688 -1.648438 2.796875 -3.109375 C 3.171875 -4.578125 3.359375 -6.0625 3.359375 -7.5625 L 3.359375 -51.3125 C 3.359375 -52.851562 3.171875 -54.347656 2.796875 -55.796875 C 2.429688 -57.242188 1.90625 -58.269531 1.21875 -58.875 L 19.21875 -58.875 C 18.53125 -58.269531 18 -57.234375 17.625 -55.765625 C 17.257812 -54.304688 17.078125 -52.800781 17.078125 -51.25 L 17.078125 -35.453125 L 33.078125 -35.453125 L 33.078125 -51.3125 C 33.078125 -52.851562 32.890625 -54.347656 32.515625 -55.796875 C 32.148438 -57.242188 31.625 -58.269531 30.9375 -58.875 L 48.9375 -58.875 C 48.238281 -58.269531 47.707031 -57.234375 47.34375 -55.765625 C 46.976562 -54.304688 46.796875 -52.800781 46.796875 -51.25 L 46.796875 -7.625 C 46.796875 -6.125 46.976562 -4.628906 47.34375 -3.140625 C 47.707031 -1.660156 48.238281 -0.613281 48.9375 0 L 30.9375 0 C 31.625 -0.613281 32.148438 -1.648438 32.515625 -3.109375 C 32.890625 -4.578125 33.078125 -6.0625 33.078125 -7.5625 L 33.078125 -24.46875 L 17.078125 -24.46875 L 17.078125 -7.625 C 17.078125 -6.125 17.257812 -4.628906 17.625 -3.140625 C 18 -1.660156 18.53125 -0.613281 19.21875 0 Z M 19.21875 0 "/></g></g></g><g fill="#445d7b" fill-opacity="1"><g transform="translate(204.357906, 63.067735)"><g><path d="M 22.515625 0.921875 C 18.410156 0.921875 14.800781 -0.00390625 11.6875 -1.859375 C 8.570312 -3.710938 6.148438 -6.316406 4.421875 -9.671875 C 2.691406 -13.023438 1.828125 -16.921875 1.828125 -21.359375 C 1.828125 -25.828125 2.691406 -29.726562 4.421875 -33.0625 C 6.148438 -36.40625 8.570312 -39 11.6875 -40.84375 C 14.800781 -42.695312 18.410156 -43.625 22.515625 -43.625 C 26.660156 -43.625 30.289062 -42.695312 33.40625 -40.84375 C 36.519531 -39 38.941406 -36.40625 40.671875 -33.0625 C 42.398438 -29.726562 43.265625 -25.828125 43.265625 -21.359375 C 43.265625 -16.921875 42.398438 -13.023438 40.671875 -9.671875 C 38.941406 -6.316406 36.519531 -3.710938 33.40625 -1.859375 C 30.289062 -0.00390625 26.660156 0.921875 22.515625 0.921875 Z M 14.640625 -21.296875 C 14.640625 -18.078125 15.34375 -15.488281 16.75 -13.53125 C 18.15625 -11.582031 20.078125 -10.609375 22.515625 -10.609375 C 24.953125 -10.609375 26.882812 -11.582031 28.3125 -13.53125 C 29.738281 -15.488281 30.453125 -18.078125 30.453125 -21.296875 C 30.453125 -24.546875 29.738281 -27.144531 28.3125 -29.09375 C 26.882812 -31.050781 24.953125 -32.03125 22.515625 -32.03125 C 20.078125 -32.03125 18.15625 -31.050781 16.75 -29.09375 C 15.34375 -27.144531 14.640625 -24.546875 14.640625 -21.296875 Z M 14.640625 -21.296875 "/></g></g></g><g fill="#445d7b" fill-opacity="1"><g transform="translate(249.444171, 63.067735)"><g><path d="M -2.4375 -36.796875 C -0.9375 -36.878906 0.675781 -37.148438 2.40625 -37.609375 C 4.132812 -38.078125 5.84375 -38.664062 7.53125 -39.375 C 9.21875 -40.09375 10.800781 -40.828125 12.28125 -41.578125 C 13.769531 -42.328125 15.023438 -43.007812 16.046875 -43.625 L 16.046875 -29.59375 L 22.265625 -42.046875 C 23.078125 -42.484375 23.941406 -42.851562 24.859375 -43.15625 C 25.773438 -43.46875 26.800781 -43.625 27.9375 -43.625 C 31.800781 -43.625 34.851562 -42.492188 37.09375 -40.234375 C 39.332031 -37.984375 40.453125 -34.554688 40.453125 -29.953125 L 40.453125 -29.46875 L 46.734375 -42.046875 C 47.546875 -42.484375 48.410156 -42.851562 49.328125 -43.15625 C 50.242188 -43.46875 51.269531 -43.625 52.40625 -43.625 C 56.269531 -43.625 59.320312 -42.492188 61.5625 -40.234375 C 63.800781 -37.984375 64.921875 -34.554688 64.921875 -29.953125 L 64.921875 -7.625 C 64.921875 -6.125 65.101562 -4.628906 65.46875 -3.140625 C 65.832031 -1.660156 66.363281 -0.613281 67.0625 0 L 50.28125 0 C 50.96875 -0.613281 51.492188 -1.648438 51.859375 -3.109375 C 52.222656 -4.578125 52.40625 -6.0625 52.40625 -7.5625 L 52.40625 -26.90625 C 52.40625 -28.863281 51.894531 -30.367188 50.875 -31.421875 C 49.863281 -32.484375 48.609375 -33.015625 47.109375 -33.015625 C 45.804688 -33.015625 44.707031 -32.71875 43.8125 -32.125 C 42.914062 -31.53125 42.203125 -30.773438 41.671875 -29.859375 C 41.140625 -28.953125 40.734375 -28.007812 40.453125 -27.03125 L 40.453125 -7.625 C 40.453125 -6.125 40.632812 -4.628906 41 -3.140625 C 41.363281 -1.660156 41.894531 -0.613281 42.59375 0 L 25.8125 0 C 26.5 -0.613281 27.023438 -1.648438 27.390625 -3.109375 C 27.753906 -4.578125 27.9375 -6.0625 27.9375 -7.5625 L 27.9375 -26.90625 C 27.9375 -28.863281 27.425781 -30.367188 26.40625 -31.421875 C 25.394531 -32.484375 24.140625 -33.015625 22.640625 -33.015625 C 20.722656 -33.015625 19.253906 -32.398438 18.234375 -31.171875 C 17.222656 -29.953125 16.492188 -28.632812 16.046875 -27.21875 L 16.046875 -7.625 C 16.046875 -6.125 16.226562 -4.628906 16.59375 -3.140625 C 16.957031 -1.660156 17.488281 -0.613281 18.1875 0 L 1.40625 0 C 2.09375 -0.613281 2.617188 -1.648438 2.984375 -3.109375 C 3.347656 -4.578125 3.53125 -6.0625 3.53125 -7.5625 L 3.53125 -27.765625 C 3.53125 -28.210938 3.488281 -28.898438 3.40625 -29.828125 C 3.332031 -30.765625 3.113281 -31.742188 2.75 -32.765625 C 2.382812 -33.785156 1.789062 -34.660156 0.96875 -35.390625 C 0.15625 -36.117188 -0.976562 -36.484375 -2.4375 -36.484375 Z M -2.4375 -36.796875 "/></g></g></g><g fill="#445d7b" fill-opacity="1"><g transform="translate(317.714198, 63.067735)"><g><path d="M 22.9375 0.921875 C 19.363281 0.921875 16.242188 0.332031 13.578125 -0.84375 C 10.910156 -2.03125 8.710938 -3.648438 6.984375 -5.703125 C 5.253906 -7.753906 3.960938 -10.125 3.109375 -12.8125 C 2.253906 -15.5 1.828125 -18.347656 1.828125 -21.359375 C 1.828125 -24.367188 2.273438 -27.210938 3.171875 -29.890625 C 4.066406 -32.578125 5.421875 -34.945312 7.234375 -37 C 9.046875 -39.0625 11.300781 -40.679688 14 -41.859375 C 16.707031 -43.035156 19.890625 -43.625 23.546875 -43.625 C 26.640625 -43.625 29.34375 -42.984375 31.65625 -41.703125 C 33.976562 -40.421875 35.78125 -38.769531 37.0625 -36.75 C 38.34375 -34.738281 38.984375 -32.65625 38.984375 -30.5 C 38.984375 -28.46875 38.441406 -26.492188 37.359375 -24.578125 C 36.285156 -22.671875 34.519531 -21.117188 32.0625 -19.921875 C 29.601562 -18.722656 26.28125 -18.125 22.09375 -18.125 L 14.953125 -18.125 C 15.441406 -15.96875 16.414062 -14.28125 17.875 -13.0625 C 19.34375 -11.84375 21.210938 -11.234375 23.484375 -11.234375 C 24.992188 -11.234375 26.285156 -11.535156 27.359375 -12.140625 C 28.441406 -12.753906 29.335938 -13.457031 30.046875 -14.25 C 30.765625 -15.039062 31.265625 -15.703125 31.546875 -16.234375 C 32.566406 -14.640625 33.765625 -13.097656 35.140625 -11.609375 C 36.523438 -10.128906 37.847656 -8.820312 39.109375 -7.6875 C 37.316406 -4.84375 34.96875 -2.695312 32.0625 -1.25 C 29.15625 0.195312 26.113281 0.921875 22.9375 0.921875 Z M 14.828125 -18.796875 C 16.773438 -19.160156 18.664062 -19.800781 20.5 -20.71875 C 22.332031 -21.632812 23.847656 -22.78125 25.046875 -24.15625 C 26.242188 -25.539062 26.84375 -27.109375 26.84375 -28.859375 C 26.84375 -29.671875 26.554688 -30.460938 25.984375 -31.234375 C 25.421875 -32.015625 24.488281 -32.40625 23.1875 -32.40625 C 22.007812 -32.40625 20.757812 -31.984375 19.4375 -31.140625 C 18.113281 -30.304688 16.984375 -29.066406 16.046875 -27.421875 C 15.109375 -25.773438 14.640625 -23.753906 14.640625 -21.359375 C 14.640625 -20.460938 14.703125 -19.609375 14.828125 -18.796875 Z M 14.828125 -18.796875 "/></g></g></g></g></g></svg>